<?xml version="1.0" encoding="utf-8"?>
<!-- Generator: Adobe Illustrator 16.0.0, SVG Export Plug-In . SVG Version: 6.00 Build 0)  -->
<!DOCTYPE svg PUBLIC "-//W3C//DTD SVG 1.1//EN" "http://www.w3.org/Graphics/SVG/1.1/DTD/svg11.dtd">
<svg version="1.1" id="Layer_1" xmlns="http://www.w3.org/2000/svg" xmlns:xlink="http://www.w3.org/1999/xlink" x="0px" y="0px"
	 width="714px" height="985px" viewBox="0 0 714 985" enable-background="new 0 0 714 985" xml:space="preserve">
<rect y="340.088" fill="#00AEEF" width="714" height="313.484"/>
<circle fill="#00AEEF" cx="393.069" cy="137.394" r="85.771"/>
<path fill="#FFFFFF" d="M444.098,136.956v16.809h-16.086v-30.191v-7.404v-7.403h-87.295v7.403v7.404v43.802h14.813v-31.634
	l18.088,16.623l-0.019,0.017l10.474,9.625l0.018-0.017l0.016,0.014l10.473-9.625l-0.015-0.014l18.637-17.127v18.527v13.611h14.812
	h16.086h9.678h5.135v-30.42H444.098z M384.089,142.74l-20.854-19.167h41.71L384.089,142.74z"/>
<g>
	<g>
		<path fill="#00AEEF" d="M546.551,117.621v44.402l-14.566-0.03v-20.689l-11.545,8.801l-10.732-8.461l-0.037,20.38h-14.336v-44.402
			l25.105,17.106L546.551,117.621z"/>
		<path fill="#00AEEF" d="M577.254,160.972c-0.725,0.317-1.256,0.531-1.596,0.645c-2.396,0.928-4.906,1.392-7.531,1.392
			c-3.459,0-6.729-0.804-9.803-2.409c-3.076-1.629-5.52-3.844-7.328-6.649c-1.832-2.85-2.748-6.026-2.748-9.532
			c0-2.646,0.531-5.111,1.594-7.396c1.063-2.261,2.521-4.229,4.377-5.903c1.832-1.673,3.957-2.952,6.377-3.833
			c2.42-0.927,4.932-1.391,7.531-1.391c2.578,0,5.09,0.453,7.531,1.357c2.443,0.906,4.57,2.194,6.379,3.868
			c1.9,1.719,3.369,3.687,4.41,5.903c1.063,2.285,1.594,4.75,1.594,7.396l-0.033,17.675l-10.754-0.103V160.972z M560.326,140.04
			c-0.838,1.335-1.256,2.793-1.256,4.377c0,2.396,0.904,4.467,2.713,6.208c1.787,1.719,3.902,2.578,6.344,2.578
			c2.467,0,4.592-0.859,6.379-2.578c1.809-1.741,2.715-3.812,2.715-6.208c0-1.584-0.42-3.042-1.256-4.377
			c-0.838-1.334-1.957-2.397-3.359-3.189c-1.379-0.768-2.873-1.153-4.479-1.153c-1.561,0-3.041,0.385-4.443,1.153
			C562.281,137.643,561.16,138.706,560.326,140.04z"/>
		<path fill="#00AEEF" d="M600.256,120.33c-0.498,0.837-1.176,1.515-2.035,2.035c-0.861,0.52-1.811,0.781-2.852,0.781
			c-1.039,0-1.979-0.249-2.814-0.747c-0.859-0.52-1.539-1.209-2.035-2.069c-0.521-0.904-0.781-1.866-0.781-2.884
			c0-1.04,0.25-1.99,0.746-2.85c0.543-0.882,1.232-1.572,2.07-2.069c0.836-0.498,1.775-0.747,2.814-0.747
			c1.041,0,1.99,0.25,2.852,0.747c0.836,0.498,1.514,1.187,2.035,2.069c0.496,0.86,0.746,1.81,0.746,2.85
			C601.002,118.532,600.752,119.493,600.256,120.33z M600.967,127.284v34.773h-10.82v-34.739L600.967,127.284z"/>
		<path fill="#00AEEF" d="M602.697,113.85l10.822-0.034v48.106l-10.822,0.136V113.85z"/>
	</g>
	<polygon fill="#00AEEF" points="634.83,139.823 634.83,152.655 624.816,152.655 624.816,131.359 615.594,131.359 615.594,149.349 
		615.594,162.058 624.816,162.058 634.83,162.058 640.855,162.058 644.053,162.058 644.053,139.823 	"/>
</g>
<circle fill="#00AEEF" cx="155.802" cy="137.394" r="85.771"/>
<path fill="#FFFFFF" d="M206.83,136.956v16.809h-16.085v-30.191v-7.404v-7.403h-87.296v7.403v7.404v43.802h14.813v-31.634
	l18.088,16.623l-0.019,0.017l10.474,9.625l0.018-0.017l0.016,0.014l10.473-9.625l-0.015-0.014l18.637-17.127v18.527v13.611h14.813
	h16.085h9.678h5.135v-30.42H206.83z M146.822,142.74l-20.854-19.167h41.71L146.822,142.74z"/>
<g>
	<g>
		<path fill="#00AEEF" d="M132.66,238.833v44.402l-14.566-0.03v-20.689l-11.545,8.801l-10.732-8.461l-0.038,20.38H81.443v-44.402
			l25.105,17.106L132.66,238.833z"/>
		<path fill="#00AEEF" d="M163.363,282.184c-0.725,0.317-1.256,0.531-1.596,0.645c-2.396,0.928-4.906,1.392-7.531,1.392
			c-3.459,0-6.729-0.804-9.803-2.409c-3.076-1.629-5.52-3.844-7.328-6.649c-1.832-2.85-2.748-6.026-2.748-9.532
			c0-2.646,0.531-5.111,1.594-7.396c1.063-2.261,2.521-4.229,4.377-5.903c1.832-1.673,3.957-2.952,6.377-3.833
			c2.42-0.927,4.931-1.391,7.531-1.391c2.578,0,5.09,0.453,7.531,1.357c2.443,0.906,4.57,2.194,6.379,3.868
			c1.9,1.719,3.369,3.687,4.41,5.903c1.063,2.285,1.594,4.75,1.594,7.396l-0.033,17.675l-10.754-0.103V282.184z M146.434,261.252
			c-0.837,1.335-1.255,2.793-1.255,4.377c0,2.396,0.904,4.467,2.713,6.208c1.787,1.719,3.902,2.578,6.344,2.578
			c2.466,0,4.592-0.859,6.379-2.578c1.809-1.741,2.714-3.812,2.714-6.208c0-1.584-0.419-3.042-1.255-4.377
			c-0.838-1.334-1.957-2.397-3.359-3.189c-1.379-0.768-2.873-1.153-4.479-1.153c-1.561,0-3.041,0.385-4.443,1.153
			C148.39,258.855,147.269,259.918,146.434,261.252z"/>
		<path fill="#00AEEF" d="M186.365,241.542c-0.498,0.837-1.177,1.515-2.036,2.035c-0.86,0.52-1.81,0.781-2.851,0.781
			c-1.039,0-1.979-0.249-2.814-0.747c-0.859-0.52-1.539-1.209-2.035-2.069c-0.521-0.904-0.781-1.866-0.781-2.884
			c0-1.04,0.249-1.99,0.746-2.85c0.543-0.882,1.232-1.572,2.07-2.069c0.836-0.498,1.775-0.747,2.814-0.747
			c1.041,0,1.99,0.25,2.851,0.747c0.837,0.498,1.515,1.187,2.036,2.069c0.496,0.86,0.746,1.81,0.746,2.85
			C187.111,239.744,186.861,240.706,186.365,241.542z M187.076,248.497v34.773h-10.82v-34.739L187.076,248.497z"/>
		<path fill="#00AEEF" d="M188.806,235.062l10.822-0.034v48.106l-10.822,0.136V235.062z"/>
	</g>
	<polygon fill="#00AEEF" points="220.939,261.036 220.939,273.868 210.925,273.868 210.925,252.572 201.703,252.572 
		201.703,270.561 201.703,283.27 210.925,283.27 220.939,283.27 226.964,283.27 230.162,283.27 230.162,261.036 	"/>
</g>
<circle fill="#FFFFFF" cx="393.069" cy="469.99" r="85.771"/>
<g>
	<g>
		<path fill="#FFFFFF" d="M546.551,450.217v44.402l-14.566-0.029V473.9l-11.545,8.801l-10.732-8.461l-0.037,20.379h-14.336v-44.402
			l25.105,17.107L546.551,450.217z"/>
		<path fill="#FFFFFF" d="M577.254,493.568c-0.725,0.316-1.256,0.531-1.596,0.645c-2.396,0.928-4.906,1.391-7.531,1.391
			c-3.459,0-6.729-0.803-9.803-2.408c-3.076-1.629-5.52-3.844-7.328-6.65c-1.832-2.85-2.748-6.025-2.748-9.531
			c0-2.646,0.531-5.111,1.594-7.396c1.063-2.262,2.521-4.229,4.377-5.902c1.832-1.674,3.957-2.953,6.377-3.834
			c2.42-0.928,4.932-1.391,7.531-1.391c2.578,0,5.09,0.453,7.531,1.355c2.443,0.906,4.57,2.195,6.379,3.869
			c1.9,1.719,3.369,3.686,4.41,5.902c1.063,2.285,1.594,4.75,1.594,7.396l-0.033,17.674l-10.754-0.102V493.568z M560.326,472.637
			c-0.838,1.334-1.256,2.793-1.256,4.377c0,2.396,0.904,4.467,2.713,6.207c1.787,1.719,3.902,2.578,6.344,2.578
			c2.467,0,4.592-0.859,6.379-2.578c1.809-1.74,2.715-3.811,2.715-6.207c0-1.584-0.42-3.043-1.256-4.377
			c-0.838-1.334-1.957-2.398-3.359-3.189c-1.379-0.768-2.873-1.154-4.479-1.154c-1.561,0-3.041,0.387-4.443,1.154
			C562.281,470.238,561.16,471.303,560.326,472.637z"/>
		<path fill="#FFFFFF" d="M600.256,452.926c-0.498,0.838-1.176,1.516-2.035,2.035c-0.861,0.52-1.811,0.781-2.852,0.781
			c-1.039,0-1.979-0.248-2.814-0.748c-0.859-0.52-1.539-1.209-2.035-2.068c-0.521-0.904-0.781-1.865-0.781-2.883
			c0-1.041,0.25-1.99,0.746-2.85c0.543-0.883,1.232-1.572,2.07-2.07c0.836-0.498,1.775-0.746,2.814-0.746
			c1.041,0,1.99,0.248,2.852,0.746c0.836,0.498,1.514,1.188,2.035,2.07c0.496,0.859,0.746,1.809,0.746,2.85
			C601.002,451.129,600.752,452.09,600.256,452.926z M600.967,459.881v34.773h-10.82v-34.74L600.967,459.881z"/>
		<path fill="#FFFFFF" d="M602.697,446.445l10.822-0.033v48.105l-10.822,0.137V446.445z"/>
	</g>
	<polygon fill="#FFFFFF" points="634.83,472.42 634.83,485.252 624.816,485.252 624.816,463.955 615.594,463.955 615.594,481.945 
		615.594,494.654 624.816,494.654 634.83,494.654 640.855,494.654 644.053,494.654 644.053,472.42 	"/>
</g>
<circle fill="#FFFFFF" cx="155.802" cy="469.99" r="85.771"/>
<g>
	<path fill="#00AEEF" d="M444.098,469.553v16.809h-16.086V456.17v-7.404v-7.402h-87.295v7.402v7.404v43.803h14.813v-31.635
		l18.088,16.623l-0.019,0.016l10.474,9.625l0.018-0.016l0.016,0.014l10.473-9.625l-0.015-0.014l18.637-17.127v18.527v13.611h14.812
		h16.086h9.678h5.135v-30.42H444.098z M384.089,475.336l-20.854-19.166h41.71L384.089,475.336z"/>
	<path fill="#00AEEF" d="M206.83,486.361h-16.085V456.17v-7.404v-7.402h-87.296v7.402v7.404v43.803h14.813v-31.635l18.088,16.623
		l-0.019,0.016l10.474,9.625l0.018-0.016l0.016,0.014l10.473-9.625l-0.015-0.014l18.637-17.127v18.527v13.611h14.813h16.085h9.678
		h5.135v-30.42H206.83V486.361z M146.822,475.336l-20.854-19.166h41.711L146.822,475.336z"/>
</g>
<g>
	<g>
		<path fill="#FFFFFF" d="M132.66,571.43v44.402l-14.566-0.029v-20.689l-11.545,8.801l-10.732-8.461l-0.038,20.379H81.443V571.43
			l25.105,17.107L132.66,571.43z"/>
		<path fill="#FFFFFF" d="M163.363,614.781c-0.725,0.316-1.256,0.531-1.596,0.645c-2.396,0.928-4.906,1.391-7.531,1.391
			c-3.459,0-6.729-0.803-9.803-2.408c-3.076-1.629-5.52-3.844-7.328-6.65c-1.832-2.85-2.748-6.025-2.748-9.531
			c0-2.646,0.531-5.111,1.594-7.396c1.063-2.262,2.521-4.229,4.377-5.904c1.832-1.672,3.957-2.951,6.377-3.832
			c2.42-0.928,4.931-1.393,7.531-1.393c2.578,0,5.09,0.453,7.531,1.357c2.443,0.906,4.57,2.195,6.379,3.867
			c1.9,1.721,3.369,3.688,4.41,5.904c1.063,2.285,1.594,4.75,1.594,7.396l-0.033,17.674l-10.754-0.102V614.781z M146.434,593.85
			c-0.837,1.334-1.255,2.793-1.255,4.377c0,2.396,0.904,4.467,2.713,6.207c1.787,1.719,3.902,2.578,6.344,2.578
			c2.466,0,4.592-0.859,6.379-2.578c1.809-1.74,2.714-3.811,2.714-6.207c0-1.584-0.419-3.043-1.255-4.377
			c-0.838-1.334-1.957-2.398-3.359-3.189c-1.379-0.77-2.873-1.154-4.479-1.154c-1.561,0-3.041,0.385-4.443,1.154
			C148.39,591.451,147.269,592.516,146.434,593.85z"/>
		<path fill="#FFFFFF" d="M186.365,574.139c-0.498,0.836-1.177,1.516-2.036,2.035c-0.86,0.52-1.81,0.781-2.851,0.781
			c-1.039,0-1.979-0.25-2.814-0.748c-0.859-0.52-1.539-1.209-2.035-2.068c-0.521-0.904-0.781-1.865-0.781-2.885
			c0-1.039,0.249-1.988,0.746-2.85c0.543-0.881,1.232-1.57,2.07-2.068c0.836-0.498,1.775-0.748,2.814-0.748
			c1.041,0,1.99,0.25,2.851,0.748c0.837,0.498,1.515,1.188,2.036,2.068c0.496,0.861,0.746,1.811,0.746,2.85
			C187.111,572.34,186.861,573.303,186.365,574.139z M187.076,581.094v34.773h-10.82v-34.74L187.076,581.094z"/>
		<path fill="#FFFFFF" d="M188.806,567.658l10.822-0.033v48.105l-10.822,0.137V567.658z"/>
	</g>
	<polygon fill="#FFFFFF" points="220.939,593.633 220.939,606.465 210.925,606.465 210.925,585.168 201.703,585.168 
		201.703,603.158 201.703,615.867 210.925,615.867 220.939,615.867 226.964,615.867 230.162,615.867 230.162,593.633 	"/>
</g>
<circle cx="393.069" cy="802.586" r="85.771"/>
<g>
	<g>
		<path d="M546.551,782.813v44.402l-14.566-0.03v-20.689l-11.545,8.801l-10.732-8.461l-0.037,20.38h-14.336v-44.402l25.105,17.106
			L546.551,782.813z"/>
		<path d="M577.254,826.164c-0.725,0.317-1.256,0.531-1.596,0.645c-2.396,0.928-4.906,1.392-7.531,1.392
			c-3.459,0-6.729-0.804-9.803-2.409c-3.076-1.629-5.52-3.844-7.328-6.649c-1.832-2.85-2.748-6.026-2.748-9.532
			c0-2.646,0.531-5.111,1.594-7.396c1.063-2.261,2.521-4.229,4.377-5.902c1.832-1.674,3.957-2.952,6.377-3.834
			c2.42-0.927,4.932-1.391,7.531-1.391c2.578,0,5.09,0.453,7.531,1.356c2.443,0.905,4.57,2.194,6.379,3.868
			c1.9,1.719,3.369,3.687,4.41,5.902c1.063,2.285,1.594,4.75,1.594,7.396l-0.033,17.675l-10.754-0.103V826.164z M560.326,805.232
			c-0.838,1.335-1.256,2.793-1.256,4.377c0,2.396,0.904,4.467,2.713,6.208c1.787,1.719,3.902,2.578,6.344,2.578
			c2.467,0,4.592-0.859,6.379-2.578c1.809-1.741,2.715-3.812,2.715-6.208c0-1.584-0.42-3.042-1.256-4.377
			c-0.838-1.334-1.957-2.397-3.359-3.189c-1.379-0.768-2.873-1.153-4.479-1.153c-1.561,0-3.041,0.386-4.443,1.153
			C562.281,802.835,561.16,803.898,560.326,805.232z"/>
		<path d="M600.256,785.521c-0.498,0.838-1.176,1.516-2.035,2.035c-0.861,0.521-1.811,0.781-2.852,0.781
			c-1.039,0-1.979-0.248-2.814-0.747c-0.859-0.52-1.539-1.209-2.035-2.069c-0.521-0.904-0.781-1.865-0.781-2.883
			c0-1.041,0.25-1.99,0.746-2.85c0.543-0.883,1.232-1.572,2.07-2.07c0.836-0.497,1.775-0.746,2.814-0.746
			c1.041,0,1.99,0.249,2.852,0.746c0.836,0.498,1.514,1.188,2.035,2.07c0.496,0.859,0.746,1.809,0.746,2.85
			C601.002,783.725,600.752,784.686,600.256,785.521z M600.967,792.477v34.773h-10.82v-34.739L600.967,792.477z"/>
		<path d="M602.697,779.042l10.822-0.034v48.106l-10.822,0.136V779.042z"/>
	</g>
	<polygon points="634.83,805.016 634.83,817.848 624.816,817.848 624.816,796.552 615.594,796.552 615.594,814.541 615.594,827.25 
		624.816,827.25 634.83,827.25 640.855,827.25 644.053,827.25 644.053,805.016 	"/>
</g>
<circle cx="155.802" cy="802.586" r="85.771"/>
<g>
	<path fill="#FFFFFF" d="M444.098,802.148v16.809h-16.086v-30.191v-7.403v-7.403h-87.295v7.403v7.403v43.803h14.813v-31.635
		l18.088,16.623l-0.019,0.017l10.474,9.625l0.018-0.017l0.016,0.014l10.473-9.625l-0.015-0.014L413.2,800.43v18.527v13.611h14.812
		h16.086h9.678h5.135v-30.42H444.098z M384.089,807.933l-20.855-19.167h41.711L384.089,807.933z"/>
	<path fill="#FFFFFF" d="M206.83,818.957h-16.085v-30.191v-7.403v-7.403h-87.296v7.403v7.403v43.803h14.813v-31.635l18.088,16.623
		l-0.019,0.017l10.474,9.625l0.018-0.017l0.016,0.014l10.473-9.625l-0.015-0.014l18.637-17.127v18.527v13.611h14.813h16.085h9.678
		h5.135v-30.42H206.83V818.957z M146.822,807.933l-20.855-19.167h41.711L146.822,807.933z"/>
</g>
<g>
	<g>
		<path d="M132.66,904.025v44.402l-14.566-0.029v-20.689l-11.545,8.801l-10.732-8.461l-0.038,20.379H81.443v-44.402l25.105,17.107
			L132.66,904.025z"/>
		<path d="M163.363,947.377c-0.725,0.316-1.256,0.531-1.596,0.645c-2.396,0.928-4.906,1.391-7.531,1.391
			c-3.459,0-6.729-0.803-9.803-2.408c-3.076-1.629-5.52-3.844-7.328-6.65c-1.832-2.85-2.748-6.025-2.748-9.531
			c0-2.646,0.531-5.111,1.594-7.396c1.063-2.262,2.521-4.229,4.377-5.903c1.832-1.673,3.957-2.952,6.377-3.833
			c2.42-0.928,4.931-1.392,7.531-1.392c2.578,0,5.09,0.453,7.531,1.356c2.443,0.906,4.57,2.195,6.379,3.868
			c1.9,1.72,3.369,3.687,4.41,5.903c1.063,2.285,1.594,4.75,1.594,7.396l-0.033,17.674l-10.754-0.102V947.377z M146.434,926.445
			c-0.837,1.334-1.255,2.793-1.255,4.377c0,2.396,0.904,4.467,2.713,6.207c1.787,1.719,3.902,2.578,6.344,2.578
			c2.466,0,4.592-0.859,6.379-2.578c1.809-1.74,2.714-3.811,2.714-6.207c0-1.584-0.419-3.043-1.255-4.377
			c-0.838-1.334-1.957-2.398-3.359-3.189c-1.379-0.769-2.873-1.154-4.479-1.154c-1.561,0-3.041,0.386-4.443,1.154
			C148.39,924.047,147.269,925.111,146.434,926.445z"/>
		<path d="M186.365,906.734c-0.498,0.837-1.177,1.516-2.036,2.035c-0.86,0.52-1.81,0.781-2.851,0.781
			c-1.039,0-1.979-0.249-2.814-0.748c-0.859-0.52-1.539-1.209-2.035-2.068c-0.521-0.904-0.781-1.865-0.781-2.884
			c0-1.04,0.249-1.989,0.746-2.85c0.543-0.882,1.232-1.571,2.07-2.069c0.836-0.498,1.775-0.747,2.814-0.747
			c1.041,0,1.99,0.249,2.851,0.747c0.837,0.498,1.515,1.188,2.036,2.069c0.496,0.86,0.746,1.81,0.746,2.85
			C187.111,904.937,186.861,905.898,186.365,906.734z M187.076,913.689v34.773h-10.82v-34.74L187.076,913.689z"/>
		<path d="M188.806,900.254l10.822-0.033v48.105l-10.822,0.137V900.254z"/>
	</g>
	<polygon points="220.939,926.229 220.939,939.061 210.925,939.061 210.925,917.764 201.703,917.764 201.703,935.754 
		201.703,948.463 210.925,948.463 220.939,948.463 226.964,948.463 230.162,948.463 230.162,926.229 	"/>
</g>
</svg>
