<svg xmlns="http://www.w3.org/2000/svg" viewBox="11.5 14.19 101.22 93.77" width="162" height="150"><path d="m552.297 576.941-120.867-56.66v646.599l120.867 56.66V576.941" style="fill:#f68712;fill-opacity:1;fill-rule:nonzero;stroke:none" transform="matrix(.13333 0 0 -.13333 0 177.333)"/><path d="M201.035 768.055c0 81.535 89.879 150.175 212.266 170.996v72.119C226.938 988.98 86.246 888.586 86.246 768.055c0-124.434 149.899-227.418 345.184-245.078v71.339c-131.563 16.825-230.395 88.211-230.395 173.739M845.395 814.102 829.52 979.555l-56.965-33.496c-54.789 32.437-124.418 55.521-202.125 64.951v-72.233c45.246-7.839 85.922-22.265 119.242-41.464l-61.836-36.356 217.559-46.855" style="fill:#bdbcbc;fill-opacity:1;fill-rule:nonzero;stroke:none" transform="matrix(.13333 0 0 -.13333 0 177.333)"/></svg>