<?xml version="1.0" standalone="no"?>
<!DOCTYPE svg PUBLIC "-//W3C//DTD SVG 20010904//EN"
 "http://www.w3.org/TR/2001/REC-SVG-20010904/DTD/svg10.dtd">
<svg version="1.0" xmlns="http://www.w3.org/2000/svg"
 width="536.000000pt" height="536.000000pt" viewBox="0 0 536.000000 536.000000"
 preserveAspectRatio="xMidYMid meet">
<metadata>
Created by potrace 1.11, written by Peter Selinger 2001-2013
</metadata>
<g transform="translate(0.000000,536.000000) scale(0.100000,-0.100000)"
fill="#000000" stroke="none">
<path d="M2508 5346 c-1 -2 -38 -6 -80 -10 -120 -10 -319 -44 -418 -71 -196
-53 -336 -107 -526 -200 -128 -63 -346 -197 -419 -257 -11 -9 -54 -44 -95 -78
-429 -353 -738 -840 -880 -1385 -16 -61 -24 -98 -45 -205 -3 -14 -8 -47 -11
-75 -4 -27 -8 -53 -10 -56 -7 -13 -18 -230 -18 -354 2 -261 42 -536 109 -745
8 -25 21 -65 29 -90 30 -96 100 -260 160 -376 255 -489 653 -889 1136 -1141
103 -53 245 -118 285 -129 6 -1 35 -12 65 -24 48 -18 164 -54 210 -65 8 -2 45
-10 81 -19 208 -48 333 -61 599 -61 176 0 328 8 384 20 12 2 35 6 51 9 293 45
623 162 895 319 466 267 862 694 1082 1167 27 58 53 114 58 125 61 127 159
484 176 640 3 28 7 55 9 62 8 25 19 242 18 353 -6 552 -175 1074 -495 1525
-71 101 -82 114 -189 234 -255 286 -568 513 -924 669 -178 78 -422 152 -590
178 -16 3 -41 7 -55 10 -14 2 -47 7 -75 10 -27 3 -61 8 -75 11 -28 5 -436 13
-442 9z"/>
</g>
</svg>
